<?xml version="1.0" encoding="utf-8"?>
<!-- Generator: Adobe Illustrator 26.3.1, SVG Export Plug-In . SVG Version: 6.00 Build 0)  -->
<svg version="1.1" id="Layer_1" xmlns:svgjs="http://svgjs.com/svgjs"
	 xmlns="http://www.w3.org/2000/svg" xmlns:xlink="http://www.w3.org/1999/xlink" x="0px" y="0px" viewBox="0 0 460 460"
	 style="enable-background:new 0 0 460 460;" xml:space="preserve">
<style type="text/css">
	.st0{fill:#9BD0B0;}
	.st1{fill:#493327;}
	.st2{fill:#875B3B;}
	.st3{fill:#EAC2A7;}
	.st4{fill:#DEB193;}
	.st5{fill:#FFC8BB;}
	.st6{fill:#3D8C79;}
	.st7{fill:#B5825D;}
	.st8{fill:none;stroke:#433431;stroke-width:0.768;stroke-linecap:round;stroke-linejoin:round;stroke-miterlimit:2.56;}
	.st9{fill:#433431;}
	.st10{stroke:#875B3B;stroke-width:0.768;stroke-linecap:round;stroke-linejoin:round;stroke-miterlimit:2.56;}
	.st11{stroke:#9BD0B0;stroke-width:1.024;stroke-linecap:round;stroke-linejoin:round;stroke-miterlimit:2.56;}
	.st12{fill:#B5825D;stroke:#433431;stroke-width:0.768;stroke-linecap:round;stroke-linejoin:round;stroke-miterlimit:2.56;}
	.st13{fill:#B5825D;stroke:#875B3B;stroke-width:0.768;stroke-linecap:round;stroke-linejoin:round;stroke-miterlimit:2.56;}
	.st14{stroke:#9BD0B0;stroke-width:0.768;stroke-linecap:round;stroke-linejoin:round;stroke-miterlimit:2.56;}
</style>
<path class="st0" d="M357,333.7c16.3,60.5-46.5,92.6-46.5,92.6C283.9,355.6,357,333.7,357,333.7z M354.1,339.1
	c-0.1,0.1-0.2,0.2-0.2,0.3c0,0,0,0.1-0.1,0.1c-0.1,0.1-0.1,0.2-0.2,0.2c-0.1,0.2-0.3,0.3-0.4,0.5l-0.9,1l-1.8,2
	c-1.2,1.3-2.4,2.6-3.6,4c-2.3,2.7-4.6,5.4-6.8,8.2c-4.4,5.6-8.5,11.4-12.2,17.5c-3.7,6.1-6.9,12.5-9.5,19.1
	c-1.3,3.3-2.4,6.7-3.2,10.2c-0.1,0.2-0.1,0.4-0.2,0.6l-0.1,0.7c-0.1,0.4-0.2,0.9-0.3,1.3c-0.1,0.4-0.2,0.9-0.2,1.3
	c-0.1,0.4-0.1,0.9-0.2,1.3c0,0.2-0.1,0.4-0.1,0.7l-0.1,0.7l-0.1,1.3c-0.1,0.9-0.1,1.8-0.1,2.7c0,0.1,0,0.1,0.1,0.1
	c0.1,0,0.2,0,0.2-0.1l0,0c0.2-0.9,0.3-1.7,0.5-2.6l0.5-2.6c0.1-0.4,0.2-0.9,0.3-1.3c0.1-0.4,0.2-0.9,0.3-1.3
	c0.1-0.4,0.2-0.9,0.3-1.3l0.2-0.6c0.1-0.2,0.1-0.4,0.2-0.6c0.9-3.4,2-6.8,3.3-10c2.6-6.6,5.8-12.9,9.5-18.9
	c3.7-6,7.7-11.8,12.1-17.4c2.2-2.8,4.4-5.5,6.7-8.2c1.2-1.3,2.3-2.7,3.5-4l1.8-2l0.9-1c0.1-0.2,0.3-0.3,0.4-0.5
	c0.1-0.1,0.1-0.2,0.2-0.3c0,0,0.1-0.1,0.1-0.2l0-0.1l0-0.1l0,0c0,0,0,0,0-0.1c0,0,0-0.1,0-0.1c0,0,0-0.2-0.1-0.4
	C354.7,339,354.3,338.9,354.1,339.1z"/>
<path class="st1" d="M74.6,309.2c11.9,17.6,28.5,30.5,47.5,38.9c7,3.1,14.7,5.6,22.3,7.4c0.8,0.2,1.5,0.4,2.3,0.5
	c0,0-1.9-2.9-3.7-8.5c-1.4-4.4-1.2-10.5-1.5-18.1c-0.7-16.9,2.4-41.3,23.8-70.9c3.8-5.2,8.1-10.7,13.1-16.2
	c14.9-16.9,26.3-30.3,34.9-41.2c-0.5-1.8-0.2-3.3,1.1-4.5c0.5-0.4,0.9-0.9,1.4-1.3c-4.1,0.1-7.7,0.9-10.2,2.3
	c-2.2,1.2-4.1,2.5-5.7,3.7c5.8-5.9,15.1-17.1,20.7-33.6c8.7-25.4,0.2-32,26.3-56.2c-1.4-18,3.2-46.4,10.7-66.3
	C252.6,31,233.4-4.2,182.9,8.6c-2,0.5-6.9-1.7-9-2c-8-1.1-16.2-0.6-24.1,1.2c-43.6,9.9-58.6,56-42.8,95.1c0,0-8.8,18.9,5.9,30.6
	c0,0,15.9,10.9-3.3,38.5c-15.4,22.2-41.7,38.2-51.1,64.2C49.8,260,61,289.1,74.6,309.2z"/>
<path class="st2" d="M199.9,201.2c1.6-1.2,3.5-2.5,5.7-3.7c2.5-1.4,6.1-2.2,10.2-2.3c5.7-0.1,12.5,1.2,19.1,4.2
	c-2-8.1-2.6-20.4-2-32.7c0-0.1,0.1-0.1,0.1-0.2c0.7-16.1,3.3-32,6.9-38c0,0,3.8,4.2,9.7,6.6c0.2,0.1,0.5,0.2,0.8,0.3
	c0.1,0,0.3,0.1,0.4,0.1c0.2,0.1,0.3,0.1,0.5,0.2c0.2,0.1,0.4,0.1,0.6,0.2c0,0,0.1,0,0.1,0c1.3,0.4,2.7,0.6,4.2,0.7
	c0.9,0.1,1.8-0.5,1.9-1.5v-1c0,0,2.4-20.1,16.8-24c8-2.2,15.1-0.3,20.5,4.1c0.2,0.2,0.5,0.4,0.7,0.6c0.2,0.2,0.4,0.4,0.6,0.6
	c0.2,0.2,0.4,0.4,0.7,0.6c0.1,0.1,0.2,0.2,0.3,0.3c2.6,2.6,4.7,5.8,6.2,9.4c0.4,1,1.1,1.9,1.9,2.5c0.2,0.1,0.3,0.3,0.5,0.4
	c0.5,0.3,1,0.6,1.6,0.8l0.7,0.2c1.8,0.6,3.8,0.6,5.5-0.2c6.1-2.6,21.8-7.6,30.4,3c0.2,0.2,0.3,0.4,0.5,0.6c0,0,0,0,0,0
	c0.2,0.3,0.5,0.6,0.7,0.9c0.2,0.3,0.4,0.7,0.7,1.1c0.1,0.2,0.2,0.4,0.4,0.7c0.2,0.4,0.4,0.8,0.6,1.2c0.1,0.1,0.1,0.3,0.2,0.4
	c4.8,11,1.6,20.7-2.5,27.3c-1.5,2.4-0.8,5.5,1.7,7c5.5,3.4,11.1,5.7,16.3,6c0,0.1-0.1,0.9-0.5,2.4c0,0.1,0,0.2-0.1,0.2
	c-0.1,0.4-0.2,0.8-0.3,1.2c-0.1,0.2-0.1,0.4-0.2,0.6c-0.2,0.7-0.5,1.6-0.8,2.5c-0.1,0.2-0.1,0.3-0.2,0.5c-0.3,0.9-0.7,1.8-1.1,2.8
	c-0.2,0.5-0.4,1-0.7,1.5c0,0,0,0,0,0c-1.1,2.3-2.4,4.9-4.1,7.7c0,0,0,0,0,0c-5.1,8.4-13.4,18.8-27,29.3
	c10.9,4.4,19.4,12.1,23.3,22.4c-0.7-8.5-0.4-21.3,4.4-35.6c8.6-25.5,19.3-25.5,13.4-60.5c21.1-23.4,47-83.2,30.1-89.3
	c-23.1-8.3-54.4,21.8-64.7,32.8c-2.5-1.9-13.5-5.6-13.6-5.6c-4.7-1.7-9.5-3-12.2-3.1c-1.4-15.1-7.9-57.9-31.3-65.4
	c-7.3-2.3-14.4,7.9-19.9,22.8c-7.4,20-12.1,48.3-10.7,66.3c-26,24.2-17.5,30.8-26.3,56.2C214.9,184.1,205.7,195.4,199.9,201.2z"/>
<path class="st3" d="M233,166.6c0.7-16.1,3.3-32,6.9-38c0,0,3.5,3.9,9,6.3c-0.2-0.1-0.5-0.2-0.7-0.3c0.5,0.2,0.9,0.4,1.4,0.6
	c0.2,0.1,0.5,0.2,0.8,0.3c0.1,0,0.3,0.1,0.4,0.1c0.2,0.1,0.3,0.1,0.5,0.2c0.2,0.1,0.4,0.1,0.6,0.2c0,0,0.1,0,0.1,0
	c1.3,0.4,2.8,0.6,4.2,0.7c0.9,0.1,1.8-0.5,1.9-1.5v-1c0,0,2.4-20.1,16.8-24c8-2.1,15-0.3,20.4,4c0.2,0.2,0.5,0.4,0.7,0.6
	c0.2,0.2,0.4,0.4,0.6,0.6c0.2,0.2,0.4,0.4,0.7,0.6c0.1,0.1,0.2,0.2,0.3,0.3c2.6,2.6,4.7,5.8,6.2,9.5c0.4,1,1.1,1.8,1.8,2.5
	c0.2,0.1,0.3,0.3,0.5,0.4c0.5,0.3,1,0.6,1.6,0.8l0.7,0.2c1.8,0.6,3.8,0.6,5.5-0.2c6.1-2.6,21.7-7.6,30.4,3c0.2,0.2,0.3,0.4,0.5,0.6
	c0,0,0,0,0,0c0.2,0.3,0.4,0.6,0.7,0.9c0.2,0.3,0.4,0.7,0.7,1.1c0.1,0.2,0.2,0.4,0.4,0.7c0.2,0.4,0.4,0.8,0.6,1.2
	c0.1,0.1,0.1,0.3,0.2,0.4c4.8,11,1.6,20.6-2.5,27.3c-1.5,2.4-0.8,5.5,1.7,7c5.5,3.4,11.1,5.7,16.3,6v0c0,0.1-0.1,0.9-0.5,2.4
	c0,0.1,0,0.2-0.1,0.2c-0.1,0.4-0.2,0.8-0.3,1.2c-0.1,0.2-0.1,0.4-0.2,0.6c-0.2,0.7-0.5,1.6-0.8,2.5c-0.1,0.2-0.1,0.3-0.2,0.5
	c-0.3,0.9-0.7,1.8-1.1,2.8c-0.2,0.5-0.4,1-0.7,1.5c0,0,0,0,0,0c-1.1,2.3-2.4,4.9-4.1,7.7c0,0,0,0,0,0c-5.1,8.4-13.4,18.7-27,29.2
	c-12.2-5-27.4-5.9-42.7-2.1c-3.3,0.8-6.5,1.8-9.8,3.1c-3.9,1.5-7.4,3.3-10.5,5.1c-2.9-8.8-10.2-23.5-28.3-32.5
	c-0.4-0.2-0.9-0.4-1.3-0.6l-0.3-0.2C233,191.3,232.5,178.9,233,166.6z M248.2,134.5c-0.2-0.1-0.4-0.2-0.6-0.3
	C247.7,134.3,247.9,134.4,248.2,134.5z M247.3,134.1c-0.2-0.1-0.3-0.2-0.5-0.2C246.9,133.9,247.1,134,247.3,134.1z"/>
<path class="st4" d="M164.6,258c8.4,7.3,25,19.4,42.8,19.8c17,0.3,28.5-9.8,34.4-16.6c0-0.1,0.1-0.2,0.1-0.3
	c0.7-2.2-0.2-4.6-2.2-5.7c-21.6-12.2-34.6-27.6-41.2-37.4c-6,7.1-12.9,15.1-20.8,24C172.7,247.4,168.4,252.8,164.6,258z"/>
<path class="st5" d="M171.2,263.4c-1.1-0.8-2.1-1.6-3.1-2.4C169.1,261.8,170.1,262.5,171.2,263.4z"/>
<path class="st5" d="M139.5,316.6c1.8-15.7,8.3-35.5,25.1-58.6l0,0c-16.8,23.1-23.4,43-25.2,58.6
	C139.4,316.7,139.5,316.7,139.5,316.6z"/>
<path class="st4" d="M121.2,347.6c2.4,12,6,24.2,11.2,32.6c8.1-6.3,13.7-10.3,13.7-10.3l-2.5-14.8
	C135.9,353.2,128.4,350.7,121.2,347.6z"/>
<path class="st4" d="M276.3,370.1c0,0,17.2-71.1,22.3-103.6c6.2,2.3,13.4,5.2,20.3,7.5c4.5,1.5,9.5,2.5,14.3,2.8
	c1,85.3-28.1,111.7-28.1,111.7c-2-1.5-2.1-1.6-1.1-0.9c-4.3,7.6-8.2,9.6-11.2,9.6h-0.1c-12.8-0.1-15.5-23.4-15.8-26.7
	C276.7,370.4,276.5,370.3,276.3,370.1z"/>
<path class="st6" d="M92.9,413.7c0,0,21.9,56.1,118.5,36.1s134.5-10.7,134.5-10.7s-8.4-25.4-38.6-49c-0.7-0.6-1.5-1.1-2.2-1.7
	c-0.3-0.3-0.7-0.5-1-0.8c-4.3,7.6-8.2,9.6-11.2,9.6h-0.1c-12.8-0.1-15.5-23.4-15.8-26.7c-0.2-0.1-0.4-0.2-0.7-0.4
	c0,0,0.1-0.2,0.1-0.6c1.7-6.9,17.3-72.2,22.2-103c-8.8-3.3-15.7-5.4-17.4-2.6c-2.8,4.7-17.9,22.2-29.6,19.3
	c-10.2-2.5-11.5-11.1-11.7-13.3c0-0.3,0-0.6,0-0.9c0.1-1,0.5-3.9,1.8-7.8c-5.8,6.8-17.4,16.9-34.4,16.6c-2.5,0-5-0.3-7.4-0.8
	c-1-0.2-2-0.4-3.1-0.7c-0.6-0.2-1.2-0.3-1.8-0.5c-0.5-0.2-1-0.3-1.6-0.5c-1.8-0.6-3.6-1.3-5.4-2c-0.4-0.2-0.8-0.4-1.3-0.6
	c-3.8-1.7-7.3-3.7-10.5-5.8c-0.4-0.3-0.8-0.5-1.2-0.8c-0.4-0.3-0.8-0.5-1.2-0.8c-0.4-0.3-0.8-0.5-1.2-0.8c0,0,0,0,0,0
	c-0.4-0.3-0.8-0.5-1.1-0.8c-0.2-0.1-0.4-0.3-0.6-0.4c-1.1-0.8-2.1-1.6-3.1-2.4c-0.8-0.6-1.6-1.3-2.3-1.9c-0.3-0.2-0.6-0.5-0.8-0.7
	c-0.1-0.1-0.3-0.2-0.4-0.3c-16.7,23.1-23.3,42.9-25.1,58.6c-0.5,4.4-0.6,8.5-0.5,12.3l3.5,20.2l1,5.8l0,0.1l2.5,14.8
	c0,0-5.5,4-13.7,10.3C121.6,388.6,106.1,401.1,92.9,413.7z"/>
<path class="st7" d="M295.8,87.6c6-1.1-7-52.1-18.2-59.8c0,0-0.1,0-0.1,0c-1.1,0.3-14.4,4.9-20,34.4c-5.4,28.3-4.1,46.1-4,46
	C255.9,105.9,278.3,90.7,295.8,87.6z"/>
<g>
	<path class="st8" d="M277.5,142.7l-3.9-0.4c0,0-3,15.7,2.1,20.1c5.1,4.4,18.6,2.5,19.3,1.8c0.7-0.7,1.4-3.4,1.4-3.4"/>
	<path class="st8" d="M321.5,159.2l3.3,2.2c0,0-7.8,14-14.5,14.1c-6.7,0.1-15.4-10-15.5-11"/>
</g>
<path class="st9" d="M303,143.1c5,1.1,15.9,7,9.5,11c-3.7,2.4-9.3,4.3-12.7,5.4c-1.8,0.6-3.8-0.2-4.8-1.8c-1.7-2.9-4.3-7.6-5.5-12.6
	C288.1,138.9,297.7,140.5,303,143.1z"/>
<g>
	<path class="st10" d="M105.4,98.1c0,0,4.6,20.9,44.9,21.3"/>
	<path class="st10" d="M154.4,126.8c0,0-7.5,8.9-39.8,8.5"/>
</g>
<path class="st11" d="M146.1,369.9c0,0,28.1,17.7,64.5,19.2c1.2,0,2.4,0.1,3.6,0.1c19.5,0.2,41.2-4.5,62.1-19"/>
<path class="st9" d="M340.1,149.1c0,0-5.6-13.6-17.2-8.7c0,0-2,1.3,0.5,2.6C325.8,144.2,333,142,340.1,149.1z"/>
<g>
	<path class="st7" d="M195.1,205.3c1.2-1.1,2.7-2.6,4.8-4.1c1.6-1.2,3.5-2.5,5.7-3.7c6-3.4,18-3.3,29.4,1.9l0.3,0.2
		c0.4,0.2,0.9,0.4,1.3,0.6c15,7.5,22.6,18.9,26.4,27.6c1.1,2.5,4.1,3.6,6.6,2.4c1.8-0.9,3.8-1.8,5.9-2.6c3.2-1.3,6.5-2.3,9.8-3.1
		c0,0,0.1,0,0.1,0c0.4-0.1,0.7-0.2,1.1-0.3c0.4-0.1,0.7-0.2,1.1-0.2c0.1,0,0.1,0,0.2,0c0.4-0.1,0.7-0.2,1.1-0.2
		c0.4-0.1,0.8-0.2,1.2-0.2c0.4-0.1,0.8-0.1,1.2-0.2c0.4-0.1,0.7-0.1,1.1-0.2c0.4-0.1,0.8-0.1,1.2-0.2c0.4-0.1,0.8-0.1,1.1-0.2
		c0.8-0.1,1.7-0.2,2.5-0.3c0.7-0.1,1.3-0.1,2-0.2c0.4,0,0.9-0.1,1.3-0.1c0.1,0,0.3,0,0.4,0c0.3,0,0.5,0,0.8,0c0.3,0,0.6,0,1,0
		c0.1,0,0.2,0,0.3,0c0.4,0,0.7,0,1,0c8.7,0,16.9,1.5,24,4.5c10.9,4.4,19.4,12.1,23.3,22.4c0,0.1,0.1,0.2,0.1,0.3
		c0.4,1,0.7,2.1,1,3.2c5.2,19.7-6.2,24.9-19.2,24.2c-4.8-0.3-9.8-1.3-14.3-2.8c-6.9-2.3-14.1-5.2-20.3-7.5
		c-8.8-3.3-15.7-5.4-17.4-2.6c-2.8,4.7-17.9,22.2-29.6,19.3c-10.2-2.5-11.5-11.1-11.7-13.3c0-0.3,0-0.6,0-0.9c0.1-1,0.5-3.9,1.8-7.8
		c0-0.1,0.1-0.2,0.1-0.3c0.7-2.2-0.2-4.6-2.2-5.7c-21.6-12.2-34.6-27.6-41.2-37.4c-1.9-2.7-3.2-5.1-4.2-6.7
		C193.2,209.2,193.5,206.8,195.1,205.3z"/>
	<g>
		<path class="st12" d="M239.9,269.4c4.9-38.9,55.3-55.7,88.3-42.7"/>
		<path class="st12" d="M254.3,271.9c0,0-3.7,3.9-2,9"/>
		<path class="st12" d="M247.3,268.7c0,0-3.7,3.9-2,9"/>
	</g>
</g>
<path class="st7" d="M347.6,102.2c-4.3-4.2,36.4-35.5,50.2-35.9c0.2,0,5.7,11.6-5.7,38.1c-10.6,24.5-20.8,38.4-23.6,42
	c-0.3,0.4-0.9,0.2-1-0.2C366.2,140.7,359.6,113.9,347.6,102.2z"/>
<path class="st9" d="M273.1,122.8c0,0,13.7-5.4,18.1,6.5c0,0,0.4,2.4-2.2,1.4C286.5,129.8,283.1,123,273.1,122.8z"/>
<g>
	<path class="st0" d="M210,389.4c0,0,3-10.2-4.9-16.9c-5.2-4.4-12.7,1.9-9,7.8C198.6,384.3,202.9,388.1,210,389.4"/>
	<path class="st0" d="M210.2,389.1c0,0,10.6,0.9,15.5-8.2c3.3-6-4.4-12-9.4-7.3C212.9,376.9,210,381.8,210.2,389.1"/>
	<path class="st0" d="M211.1,386.9l-2.4,14.4c-0.2,1.5-1.9,2.1-3.1,1.3l-5.5-4.1c-1-0.7-1-2.2,0-3L211.1,386.9z"/>
	<path class="st0" d="M210.6,387.4l11.8,8.5c1.2,0.9,1.1,2.7-0.3,3.4l-6.1,3.1c-1.1,0.6-2.5-0.1-2.7-1.3L210.6,387.4z"/>
</g>
<g>
	<path class="st13" d="M151.9,158.8c-1.1,33-27.6,55.5-38.2,85.1c-10.3,28.8-8.3,61.3,9.6,86.7c2.4,3.5,5.1,6.8,8,9.9"/>
	<path class="st13" d="M184,153.2c1,35.2-17,65.5-37.2,92.8c-11.7,15.7-25.2,39.1-21.3,59.8c0.1,0.6,0.2,1.1,0.4,1.7"/>
	<path class="st13" d="M246.8,107.4c0,0-14.9,17.2-50.3,14.8"/>
	<path class="st13" d="M192.4,128.5c0,0,6,8.3,34.3,10.2"/>
</g>
<path class="st0" d="M204.8,171.8c0,0,9.8-17.3-12.7-26.3C192.1,145.5,187.6,164.4,204.8,171.8"/>
<path class="st0" d="M165.1,166.8c0,0,14.1-3,8.3-19.6C173.4,147.2,160.9,153.8,165.1,166.8"/>
<g>
	<path class="st9" d="M275.7,370.2c0.1,1.1,2.2,28.2,17.1,28.3h0.1c4.3,0,8.4-3.4,12.2-10.1c2.9-5.2,5.7-12.3,8.3-21.4
		c7.9-27.7,6.6-65.3-3.4-95.7c-0.1-0.3-0.5-0.5-0.8-0.4c-0.3,0.1-0.5,0.5-0.4,0.8c9.9,30.2,11.3,67.5,3.4,95
		c-2.8,9.6-5.5,16.4-8.1,21c-4.3,7.6-8.2,9.6-11.2,9.6h-0.1c-12.8-0.1-15.5-23.4-15.8-26.7c0-0.2,0-0.4,0-0.4c0-0.3-0.2-0.5-0.5-0.6
		c-0.1,0-0.1,0-0.2,0C275.9,369.6,275.6,369.9,275.7,370.2z"/>
</g>
<path class="st0" d="M374.3,414.2c-18.4,28-53.5,14.4-53.5,14.4C339.5,392.8,374.3,414.2,374.3,414.2z M371.1,415
	c-0.1,0-0.1,0-0.2,0c0,0,0,0-0.1,0c-0.1,0-0.1,0-0.2,0c-0.1,0-0.2,0-0.3,0l-0.7,0l-1.4,0c-0.9,0-1.9,0-2.9,0c-1.9,0-3.8,0.1-5.7,0.2
	c-3.8,0.2-7.6,0.7-11.3,1.4c-3.7,0.7-7.4,1.7-11,3c-1.8,0.7-3.5,1.4-5.2,2.3c-0.1,0.1-0.2,0.1-0.3,0.2l-0.3,0.2
	c-0.2,0.1-0.4,0.2-0.6,0.4c-0.2,0.1-0.4,0.2-0.6,0.4c-0.2,0.1-0.4,0.3-0.6,0.4c-0.1,0.1-0.2,0.1-0.3,0.2l-0.3,0.2l-0.6,0.4
	c-0.4,0.3-0.8,0.6-1.1,0.9c0,0,0,0.1,0,0.1c0,0,0.1,0,0.1,0l0,0c0.4-0.2,0.8-0.5,1.2-0.7l1.2-0.7c0.2-0.1,0.4-0.2,0.6-0.3
	c0.2-0.1,0.4-0.2,0.6-0.3c0.2-0.1,0.4-0.2,0.6-0.3l0.3-0.2c0.1-0.1,0.2-0.1,0.3-0.2c1.7-0.9,3.4-1.6,5.2-2.3
	c3.5-1.3,7.2-2.3,10.9-2.9c3.7-0.7,7.5-1.1,11.2-1.4c1.9-0.1,3.8-0.2,5.7-0.2c0.9,0,1.9,0,2.8,0l1.4,0l0.7,0c0.1,0,0.2,0,0.4,0
	c0.1,0,0.1,0,0.2,0c0,0,0.1,0,0.1,0l0,0l0,0l0,0c0,0,0,0,0,0c0,0,0,0,0.1,0c0,0,0.1-0.1,0.1-0.2C371.4,415.2,371.3,415,371.1,415z"
	/>
<path class="st6" d="M177.2,111.9c0,0,16.7-8.6,24.8-3.1c5.9,4,9,8.2,10.3,10.2c0.4,0.6,0,1.4-0.6,1.5c-4.4,0.9-18.6,3-28.4-3.2
	C175.2,112.3,177.2,111.9,177.2,111.9z"/>
<path class="st14" d="M180.5,113.2c0,0,13.1-3.5,26.2,4.6"/>
<path class="st6" d="M173.9,109.8c0,0,19.3-4.2,19.6-23.2c0.2-12.3-6.9-19.4-6.9-19.4s-13,4.1-16.9,17.7
	C165.7,98.5,171.5,107.1,173.9,109.8z"/>
<path class="st0" d="M174.7,107.9c-0.5,0.7-0.3,1.7,0.5,2c3.1,1.3,10.5,3.6,20.1,1.4c10-2.3,13.8-12,15-16c0.3-0.9-0.4-1.7-1.3-1.7
	c-4.9,0.2-18.9,1.2-25.2,5.8C178.9,103.1,176.1,106.2,174.7,107.9z"/>
<path class="st14" d="M185.5,72.5c0,0-0.2,17.1-11.1,36.1"/>
<path class="st6" d="M172.4,111.1c0,0,2.1-19.6-15.7-25.9c-11.6-4.1-20.6,0.4-20.6,0.4s-0.2,13.6,11.4,21.6S169.1,112.5,172.4,111.1
	z"/>
<path class="st0" d="M171.5,109.3c0.7,0.5,1.7,0.2,2-0.6c1.2-3.1,3.3-10.6,0.9-20.1C171.9,78.6,162,75,158,73.9
	c-0.9-0.2-1.7,0.5-1.6,1.3c0.3,4.9,1.6,18.9,6.4,25C166.6,105.3,169.8,108,171.5,109.3z"/>
<path class="st14" d="M140.7,88.2c0,0,16.2,5.6,30.7,21.9"/>
<path class="st6" d="M172.4,110.4c0,0-19.7-1.6-25.5,16.4c-3.8,11.7,1,20.6,1,20.6s13.6-0.2,21.3-12
	C176.9,123.5,173.9,113.6,172.4,110.4z"/>
<path class="st0" d="M171,111.9c0.7-0.5,0.8-1.5,0.1-2.1c-2.6-2.1-9-6.5-18.8-7.2c-10.2-0.7-16.7,7.5-19,11c-0.5,0.8-0.1,1.8,0.8,2
	c4.8,1.2,18.4,4.4,25.8,1.7C165.7,115.3,169.2,113.1,171,111.9z"/>
<path class="st14" d="M150.4,142.7c0,0,5.2-16.3,21.1-31.3"/>
<path class="st6" d="M173.7,109.8c0,0-7.7,18.2,7.5,29.4c9.9,7.3,19.8,5.6,19.8,5.6s4.1-13-4.7-24S177.3,109.4,173.7,109.8z"/>
<path class="st0" d="M174.1,111.8c-0.5-0.7-1.6-0.7-2.1,0c-2,2.6-6.3,9.2-6.7,19c-0.5,10.2,7.9,16.5,11.4,18.7
	c0.8,0.5,1.8,0.1,2-0.8c1.1-4.8,3.9-18.5,1.1-25.8C177.6,117.1,175.3,113.5,174.1,111.8z"/>
<path class="st14" d="M197.4,140.9c0,0-13.8-10.1-23-29.9"/>
<path class="st0" d="M181,107.2c0.1,0,0.1,0,0.2,0c7.4,0.3,14.2,7.2,15.3,14.3c0.1,0.8-0.8,1.4-1.6,1.2c-3.8-1.1-13.7-4.3-20.1-9.1
	C168.5,109,177.2,107.1,181,107.2z"/>
</svg>
