<?xml version="1.0" encoding="utf-8"?>
<!-- Generator: Adobe Illustrator 26.3.1, SVG Export Plug-In . SVG Version: 6.00 Build 0)  -->
<svg version="1.1" id="Layer_1" xmlns:svgjs="http://svgjs.com/svgjs"
	 xmlns="http://www.w3.org/2000/svg" xmlns:xlink="http://www.w3.org/1999/xlink" x="0px" y="0px" viewBox="0 0 460 460"
	 style="enable-background:new 0 0 460 460;" xml:space="preserve">
<style type="text/css">
	.st0{fill:#9BD0B0;}
	.st1{fill:#3D8C79;}
	.st2{fill:#B5825D;}
	.st3{stroke:#433431;stroke-width:0.768;stroke-linecap:round;stroke-linejoin:round;stroke-miterlimit:2.56;}
	.st4{fill:#A14B2C;}
	.st5{fill:#433431;}
	.st6{fill:#FFABAB;}
	.st7{fill:#FF8C8B;}
	.st8{stroke:#9BD0B0;stroke-width:0.768;stroke-linecap:round;stroke-linejoin:round;stroke-miterlimit:2.56;}
	.st9{fill:#EAC2A7;}
	.st10{opacity:0.6;fill:#433431;enable-background:new    ;}
	.st11{fill:#875B3B;}
	.st12{fill:none;stroke:#433431;stroke-width:1.536;stroke-linecap:round;stroke-linejoin:round;stroke-miterlimit:2.56;}
	.st13{fill:#B5825D;stroke:#433431;stroke-width:1.536;stroke-linecap:round;stroke-linejoin:round;stroke-miterlimit:2.56;}
</style>
<path class="st0" d="M311.3,244.7c0,0-52.9-39.2,2.2-97.1c0.6-0.6,1.5-0.5,2,0.2C321.2,156.1,350.4,202.8,311.3,244.7"/>
<g>
	<path class="st0" d="M154,384.6c6.6-1.3,13.7-2.4,21.3-3.3h0c15.5-1.8,33-2.9,51.4-2.9c10.8,0,21.2,0.4,31.2,1
		c8.7,0.6,17,1.4,24.7,2.4c13.9,1.8,26.1,4.3,36,7.3c16.4,5,26.3,11.3,26.3,18.2c0,0.1,0,0.1,0,0.2c0,0,0,0.1,0,0.1
		c-0.6,13.4-38.2,24.6-88.9,27.7c-2.8,0.2-5.6,0.3-8.4,0.4c0,0,0,0,0,0c-6.8,0.3-13.7,0.5-20.8,0.5c-2.5,0-5,0-7.4-0.1
		c-15.5-0.2-30.2-1.2-43.6-2.8c-38.9-4.6-66-14.2-67.2-25.4c0-0.3,0-0.5,0-0.8C108.5,398.1,126.3,389.9,154,384.6z"/>
</g>
<g>
	<path class="st1" d="M175.6,387.2c4.5-0.9,9.3-1.8,14.4-2.4h0c10.5-1.4,22.4-2.2,34.9-2.2c7.3,0,14.4,0.3,21.1,0.8
		c5.9,0.4,11.5,1.1,16.8,1.8c9.4,1.4,17.7,3.3,24.4,5.5c11.1,3.7,17.8,8.5,17.8,13.7c0,0,0,0.1,0,0.1c0,0,0,0.1,0,0.1
		c-0.4,10.1-25.9,18.5-60.3,20.9c-1.9,0.1-3.8,0.2-5.7,0.3c0,0,0,0,0,0c-4.6,0.2-9.3,0.3-14.1,0.3c-1.7,0-3.4,0-5,0
		c-10.5-0.2-20.5-0.9-29.5-2.1c-26.4-3.4-44.8-10.7-45.6-19.1c0-0.2,0-0.4,0-0.6C144.8,397.4,156.9,391.2,175.6,387.2z"/>
</g>
<path class="st2" d="M151.4,398.4c-1.7,1.7-3.1,3.8-4.9,6.6c-4.3,6.8-17.7,4.9-17.7,4.9c-6,3.9-16.4,0-16.4,0
	c-9.6-1.9-9.6-8.8-9.6-8.8c-5.3-7.8,4.3-14.6,12.8-18.5c8.5-3.9,16-4.9,17.1-22.4c0.3-4.7,1.2-9.3,2.3-13.8
	C139.9,369.9,145.7,390.7,151.4,398.4z"/>
<path class="st3" d="M109.5,390.5c0.7-0.3-7.8,4.1-5.8,13.2"/>
<path class="st3" d="M129.8,397c0,0-3.2,4.9-1.3,12.7"/>
<path class="st2" d="M331.2,351.5c0.6,3,1.1,6.1,1.3,9.3c1.1,17.5,8.5,18.5,17.1,22.4c8.5,3.9,18.1,10.7,12.8,18.5
	c0,0,0,6.8-9.6,8.8c0,0-10.4,3.9-16.4,0c0,0-13.5,1.9-17.7-4.9c-4.3-6.8-6.4-9.7-16-11.7c-0.5-0.1-1.1-0.2-1.7-0.3
	c7.2-11.6,10.9-25.1,14.7-38.1c3.5-12.1,6.8-24.4,9.4-36.7c-0.1,1.3-0.1,2.7,0,4c5.2,5.8,10.1,8.1,14.2,8.5
	c7.2,0.7,11.7-7.3,6.8-12.3c-2.8-2.8-8.8-7.6-10.4-15.5c-2-9.4,0.5-23.6,7.6-27.2c8.3-4.2,25.4,3.7,34,12.6
	c16,16.5,19.2,46.7-13.4,61C348.4,356.6,337.9,355,331.2,351.5z"/>
<path class="st3" d="M355.6,391.1c-0.7-0.3,7.8,4.1,5.8,13.2"/>
<path class="st3" d="M335.3,397.6c0,0,3.2,4.9,1.3,12.7"/>
<path class="st4" d="M332.9,275.3c-0.2,1.4-0.4,2.8-0.7,4.2c-1,5.7-2.1,11.4-3,16.8c-1.2,7.5-2.6,15-4.2,22.5
	c-2.7,12.4-5.9,24.6-9.4,36.7c-3.8,13-7.5,26.5-14.7,38.1c-0.6,0.9-1.2,1.9-1.8,2.8c-0.9,1.3-1.8,2.4-2.6,3.2
	c-13.9,14-58.9,15-70.6,15v0.1c0,0-57.3,1.2-73.3-14.9c-0.4-0.4-0.8-0.9-1.2-1.4c-5.7-7.6-11.4-28.5-16.4-51.9
	c-4.9-23.1-9.1-48.7-11.9-66.6c-0.2-1.2-0.4-2.4-0.5-3.5c13,2.6,51.1,9.1,102.4,9.1c62.9,0,107.2-10.1,107.2-10.1
	C332.4,275.3,332.6,275.3,332.9,275.3z"/>
<ellipse class="st5" cx="226.8" cy="252.7" rx="109.9" ry="9"/>
<path class="st4" d="M334.2,251.3c-1.8,0-3.9,0.8-5.7,1.1c-5.4,1-10.8,1.9-16.2,2.8c-7.8,1.2-15.8,2.5-23.6,3.2
	c-9.1,0.8-78.4,6.4-132.8-1.5c-6.2-0.9-12.7-1.6-18.9-2.6c-5.8-0.9-11.6-1.9-17.3-3.1c-4,0-7.2,3.2-7.2,7.2v10c0,4,3.2,7.2,7.2,7.2
	c0,0,1.7,0.4,4.8,1c13,2.6,51.1,9.1,102.4,9.1c62.9,0,107.2-10.1,107.2-10.1c0.2,0,0.4,0,0.6,0c3.7-0.3,6.5-3.4,6.5-7.1v-10
	C341.4,254.5,338.2,251.3,334.2,251.3z"/>
<path class="st1" d="M152.4,248.3c0,0-41.2-8.3-42.6-48.6c-0.9-26.1,14.1-41.5,14.1-41.5s27.7,8.4,36.5,37.1
	C169.3,223.9,157.3,242.6,152.4,248.3z"/>
<path class="st6" d="M174.9,220.7c6.3-15.8,2.5-34.8-11.5-44.9c-1.5-1.1-3.8,0-4.3,1.7c-2.3,8.4-7.5,30.6-5.5,47.9
	c2.3,20.5,19-1.5,21-4.1C174.7,221.1,174.8,220.9,174.9,220.7z"/>
<path class="st7" d="M153.9,247.9c0,0,30.4-8.8,33.9-25c2.5-11.7,1.5-20.4,0.8-24.4c-0.2-1.1-1.5-1.7-2.5-1.1
	c-6.4,4-26.3,17.9-31.1,36.9C151.1,249.8,153.9,247.9,153.9,247.9z"/>
<path class="st0" d="M151.2,245.9c0.7,1.2,0,2.8-1.4,3.1c-5.2,1.3-17.8,3.2-32.7-2.8c-15.5-6.2-19.2-22.8-20.1-29.5
	c-0.2-1.4,1.1-2.7,2.5-2.4c7.9,1.5,30.1,6.6,39,15.6C145.7,237.2,149.5,242.9,151.2,245.9z"/>
<g>
	<path class="st8" d="M126.3,169.2c0,0,1.1,36.4,24.8,76.4"/>
	<path class="st8" d="M156.9,241.7c0,0,20.1-11,26.7-36.1"/>
</g>
<path class="st9" d="M292.1,192.6c5-16.6,8-33.7,6.5-41c0,0-4.9,2.7-11.4,3.2c0.3,0,0.6,0,0.8-0.1c-0.5,0.1-1.1,0.1-1.6,0.1
	c-0.3,0-0.6,0-0.9,0c-0.1,0-0.3,0-0.4,0c-0.2,0-0.4,0-0.6,0c-0.2,0-0.4,0-0.7,0c0,0-0.1,0-0.1,0c-1.5-0.1-3-0.3-4.6-0.8
	c-1-0.3-1.6-1.2-1.4-2.2l0.3-1c0,0,4.8-21.3-8.5-30.4c-7.3-5-15.2-5.6-22.2-3.2c-0.3,0.1-0.6,0.2-0.9,0.3c-0.3,0.1-0.6,0.2-0.9,0.3
	c-0.3,0.1-0.6,0.3-0.9,0.4c-0.1,0.1-0.3,0.1-0.4,0.2c-3.6,1.7-6.8,4.3-9.7,7.4c-0.8,0.8-1.7,1.5-2.8,1.9c-0.2,0.1-0.4,0.2-0.7,0.2
	c-0.6,0.2-1.3,0.3-1.9,0.3l-0.8,0c-2,0-4-0.8-5.5-2.1c-5.3-4.8-19.3-15.4-31.9-7.8c-0.2,0.1-0.4,0.3-0.7,0.4c0,0,0,0,0,0
	c-0.3,0.2-0.7,0.5-1,0.7c-0.3,0.3-0.7,0.5-1,0.8c-0.2,0.2-0.4,0.4-0.6,0.5c-0.4,0.3-0.7,0.7-1.1,1c-0.1,0.1-0.2,0.2-0.4,0.4
	c-8.8,9.4-9,20.4-7.2,28.6c0.7,3-1.2,5.9-4.2,6.5c-6.8,1.4-13.3,1.8-18.7,0.3c0,0,0,0,0,0c0,0.1-0.2,1-0.4,2.6c0,0.1,0,0.2,0,0.3
	c0,0.4-0.1,0.8-0.1,1.3c0,0.2,0,0.5,0,0.7c0,0.8-0.1,1.8-0.1,2.8c0,0.2,0,0.3,0,0.5c0,1,0,2.1,0.1,3.3c0,0.6,0.1,1.1,0.1,1.8
	c0,0,0,0,0,0c0.2,2.7,0.7,5.8,1.4,9.3c0,0,0,0,0,0c2.2,10.4,6.9,23.8,17,39.3c14.2-0.7,30,3.8,44.1,13.1c3,2,6,4.2,8.8,6.6
	c3.4,2.9,6.4,6,8.9,9c6.1-7.9,18.7-20.2,40.3-22.9c0.5-0.1,1-0.1,1.5-0.2l0.4,0C283.2,217.7,288.2,205.3,292.1,192.6z M288.2,154.6
	c0.2,0,0.5-0.1,0.7-0.1C288.6,154.6,288.4,154.6,288.2,154.6z M289.2,154.5c0.2,0,0.4-0.1,0.6-0.1
	C289.6,154.5,289.4,154.5,289.2,154.5z"/>
<path class="st1" d="M316.7,252.6c0,0-36.1-50.6,31.1-86.1C347.8,166.5,368.1,224,316.7,252.6"/>
<path class="st0" d="M325.2,252.2c0,0,4.1-34.7,45.5-24.1C370.7,228.1,357.4,259.8,325.2,252.2"/>
<path class="st10" d="M332.9,275.3c-0.2,1.4-0.4,2.8-0.7,4.2c-8.8,1.8-49.9,9.7-105.5,9.7c-51.3,0-89.5-6.6-102.4-9.1
	c-0.4-0.1-0.8-0.2-1.2-0.2c-0.2-1.2-0.4-2.4-0.5-3.5c13,2.6,51.1,9.1,102.4,9.1c62.9,0,107.2-10.1,107.2-10.1
	C332.4,275.3,332.6,275.3,332.9,275.3z"/>
<path class="st11" d="M313.4,239.6c-1.2-1.8-2.7-3.8-4.5-5.8c-2-2.3-5.4-4.4-9.6-6c-5.8-2.1-13.1-3.3-20.9-2.5
	c4.9-7.5,9.9-19.8,13.7-32.5c0-0.1,0-0.2,0-0.2c5-16.6,8-33.7,6.5-41c0,0-5.3,3-12.2,3.3c-0.3,0-0.6,0-0.9,0c-0.1,0-0.3,0-0.4,0
	c-0.2,0-0.4,0-0.6,0c-0.2,0-0.4,0-0.7,0c0,0-0.1,0-0.1,0c-1.5-0.1-3-0.3-4.5-0.8c-1-0.3-1.6-1.2-1.4-2.2l0.3-1
	c0,0,4.8-21.3-8.5-30.4c-7.4-5-15.2-5.7-22.3-3.2c-0.3,0.1-0.6,0.2-0.9,0.3c-0.3,0.1-0.6,0.2-0.9,0.3c-0.3,0.1-0.6,0.3-0.9,0.4
	c-0.1,0.1-0.3,0.1-0.4,0.2c-3.5,1.7-6.8,4.3-9.6,7.4c-0.8,0.9-1.8,1.5-2.8,1.9c-0.2,0.1-0.4,0.2-0.7,0.2c-0.6,0.2-1.2,0.2-1.9,0.2
	l-0.8,0c-2,0-4-0.8-5.5-2.1c-5.3-4.8-19.4-15.5-31.9-7.8c-0.2,0.1-0.4,0.3-0.7,0.4c0,0,0,0,0,0c-0.3,0.2-0.7,0.5-1,0.7
	c-0.3,0.3-0.7,0.5-1,0.8c-0.2,0.2-0.4,0.4-0.6,0.5c-0.4,0.3-0.7,0.7-1.1,1c-0.1,0.1-0.2,0.2-0.3,0.3c-8.8,9.4-9,20.4-7.2,28.6
	c0.7,3-1.2,5.9-4.2,6.5c-6.8,1.4-13.3,1.8-18.7,0.3c0,0.1-0.2,1-0.4,2.6c0,0.1,0,0.2,0,0.3c0,0.4-0.1,0.8-0.1,1.3c0,0.2,0,0.5,0,0.7
	c0,0.8-0.1,1.8-0.1,2.8c0,0.2,0,0.3,0,0.5c0,1,0,2.1,0.1,3.3c0,0.6,0.1,1.1,0.1,1.8c0,0,0,0,0,0c0.2,2.7,0.7,5.8,1.4,9.3
	c0,0,0,0,0,0c2.2,10.4,6.9,23.8,17,39.4c-12.7,0.6-24,5.4-31.7,14.4c3.7-8.4,8-21.5,8.2-37.8c0.4-28.9-10.5-32.8,8-66.3
	c-13.1-31.3-18-101.3,1.3-101.4c26.4-0.2,47.4,41.5,54,56.4c3.2-1,15.7-0.8,15.8-0.8c5.4,0,10.7,0.3,13.5,1.2
	c6.8-14.8,28.7-56,55.1-55.3c8.2,0.2,11.8,13.1,12.1,30.2c0.4,22.9-5,53.4-12.9,71.2c17.8,33.9,6.8,37.5,6.6,66.4
	C304.2,216.9,309.5,231.6,313.4,239.6z"/>
<path class="st2" d="M256.5,90c-5.7-3.2,25.7-50.4,39.9-54.2c0.1,0,0.1,0,0.2,0c1,0.8,12.9,10.1,8,42c-4.6,30.6-12.3,48.3-12.3,48.2
	C290.6,122.8,273.1,99.4,256.5,90z"/>
<g>
	<path class="st12" d="M255.4,152.5l4.1,1c0,0-2.5,17.1-9.3,19.7c-6.7,2.7-19.8-4.1-20.2-5c-0.4-0.9-0.2-4-0.2-4"/>
	<path class="st12" d="M204.9,153.5l-4.1,1.1c0,0,2.9,17,9.7,19.5c6.8,2.5,19.3-4.7,19.7-5.6"/>
</g>
<path class="st5" d="M229.4,143.8c-5.5-0.6-18.6,1.4-13.6,7.8c3,3.7,7.9,7.7,11,10c1.7,1.2,4,1.2,5.6-0.1c2.8-2.3,7.1-6.2,10-10.8
	C246,144.9,235.7,143,229.4,143.8z"/>
<path class="st5" d="M189.6,136.7c0,0,10.5-11.8,20.6-2.7c0,0,1.6,2.1-1.4,2.4C205.8,136.8,199.3,131.9,189.6,136.7z"/>
<path class="st2" d="M313.4,239.6c-1.2-1.8-2.7-3.8-4.5-5.8c-4.9-5.6-17.1-9.8-30.5-8.5l-0.4,0c-0.5,0.1-1,0.1-1.5,0.2
	c-17.9,2.2-32,10-37.5,18.6c-4.5,7-4.6,2.2-6.6,0.1c-1.5-1.6-3.2-3.2-5-4.7c-2.8-2.4-5.8-4.6-8.8-6.6c0,0,0,0-0.1,0
	c-0.3-0.2-0.7-0.4-1-0.7c-0.3-0.2-0.7-0.4-1-0.6c-0.1,0-0.1-0.1-0.2-0.1c-0.3-0.2-0.7-0.4-1-0.6c-0.4-0.2-0.7-0.4-1.1-0.6
	c-0.4-0.2-0.7-0.4-1.1-0.6c-0.4-0.2-0.7-0.4-1.1-0.6c-0.4-0.2-0.8-0.4-1.2-0.6c-0.4-0.2-0.7-0.4-1.1-0.6c-0.8-0.4-1.6-0.8-2.4-1.2
	c-0.7-0.3-1.3-0.6-2-0.9c-0.4-0.2-0.9-0.4-1.3-0.6c-0.1-0.1-0.3-0.1-0.4-0.2c-0.3-0.1-0.5-0.2-0.8-0.3c-0.3-0.1-0.6-0.3-1-0.4
	c-0.1,0-0.2-0.1-0.3-0.1c-0.4-0.1-0.7-0.3-1.1-0.4c-8.8-3.1-17.7-4.5-26-4.1c-12.7,0.6-24,5.4-31.7,14.4c-0.1,0.1-0.2,0.2-0.3,0.3
	c-0.8,0.9-1.5,1.9-2.1,2.9c-12.3,18.1-2.6,27.5,10.8,31.4c4.9,1.4,10.4,2.1,15.5,2.3c7.8,0.2,16.2-0.2,23.3-0.4
	c10.1-0.2,17.9,0.2,18.6,3.5c1.2,5.8,10.2,29,23.2,30.2c11.2,1,15.6-7.1,16.6-9.3c0.1-0.3,0.2-0.6,0.3-1c0.3-1.1,0.9-4.2,0.9-8.5
	c0-0.1,0-0.2,0-0.3c0-2.5-1.2-3.7,1.2-4.1c26.3-4.6,47.7-16.9,58.3-24.2C319.4,249.7,314.9,241.9,313.4,239.6z"/>
<g>
	<path class="st13" d="M248.4,294.5c8.9-41.3-36.3-76.3-74.4-74.8"/>
	<path class="st13" d="M231.7,291.3c0,0,3.8,6.3,0.9,13.1"/>
	<path class="st13" d="M240.3,289.3c0,0,3.8,6.3,0.9,13.1"/>
</g>
<path class="st2" d="M198.7,86.4c5.9-2.7-24.3-49-38.1-54.3c-0.2-0.1-9.9,9.8-7.8,40.7c2,28.7,7.4,46.5,9,51.1
	c0.2,0.5,0.8,0.6,1.1,0.1C166,118.8,182.3,93.9,198.7,86.4z"/>
<path class="st5" d="M267,133.9c0,0-12-10.3-20.7,0.1c0,0-1.3,2.3,1.7,2.2C250.9,136.2,256.7,130.5,267,133.9z"/>
<g>
	<path class="st10" d="M181.2,328.1c0,0-3.4,55.1,43.8,68.2C225,396.3,239.5,338.3,181.2,328.1z M222.2,392.7
		c-0.2,0-0.3-0.1-0.3-0.1c-0.1,0-0.1-0.1-0.1-0.1c0,0,0,0,0,0l0,0l0-0.1l0,0c0-0.1,0-0.1-0.1-0.1c0-0.1-0.1-0.2-0.1-0.3
		c-0.1-0.2-0.1-0.3-0.2-0.5l-0.3-1l-0.6-2c-0.4-1.3-0.8-2.6-1.3-4c-0.9-2.6-1.8-5.2-2.8-7.8c-2-5.2-4.3-10.2-6.9-15.1
		c-2.6-4.9-5.5-9.6-8.9-13.9c-1.7-2.2-3.5-4.3-5.5-6.2c-0.1-0.1-0.2-0.2-0.4-0.4l-0.4-0.4c-0.2-0.2-0.5-0.5-0.7-0.7
		c-0.2-0.2-0.5-0.5-0.7-0.7c-0.3-0.2-0.5-0.5-0.8-0.7l-1.5-1.4c-0.5-0.5-1-0.9-1.6-1.4l0,0c0,0,0-0.1,0-0.2c0,0,0.1,0,0.1,0
		c0.6,0.4,1.2,0.8,1.7,1.2l0.8,0.6l0.4,0.3c0.1,0.1,0.3,0.2,0.4,0.3c0.3,0.2,0.5,0.4,0.8,0.7c0.3,0.2,0.5,0.4,0.8,0.7
		c0.3,0.2,0.5,0.5,0.8,0.7l0.4,0.4c0.1,0.1,0.2,0.2,0.4,0.4c2,2,3.8,4.1,5.6,6.2c3.5,4.4,6.5,9.1,9.1,14c2.6,4.9,4.9,10,6.9,15.2
		c1,2.6,1.9,5.2,2.8,7.9c0.4,1.3,0.8,2.6,1.2,4l0.6,2l0.3,1c0.1,0.2,0.1,0.3,0.2,0.5c0,0.1,0.1,0.2,0.1,0.2c0,0,0,0.1,0,0.1
		c0.1,0.1,0.1,0.2,0.1,0.3C222.6,392.5,222.4,392.7,222.2,392.7z"/>
	<path class="st10" d="M236.9,390.2c33.7-9.4,31.2-48.7,31.2-48.7C226.6,348.9,236.9,390.2,236.9,390.2z M238.7,387.3
		c0-0.1,0-0.1,0.1-0.2c0,0,0,0,0-0.1c0-0.1,0-0.1,0.1-0.2c0-0.1,0.1-0.2,0.1-0.3l0.2-0.7l0.4-1.4c0.3-0.9,0.6-1.9,0.9-2.8
		c0.6-1.9,1.3-3.8,2-5.6c1.4-3.7,3.1-7.3,4.9-10.8c1.9-3.5,4-6.9,6.5-10c1.2-1.6,2.6-3.1,4-4.5c0.1-0.1,0.2-0.2,0.3-0.3l0.3-0.3
		c0.2-0.2,0.4-0.3,0.5-0.5c0.2-0.2,0.4-0.3,0.6-0.5c0.2-0.2,0.4-0.3,0.6-0.5c0.1-0.1,0.2-0.2,0.3-0.2l0.3-0.2l0.6-0.4
		c0.4-0.3,0.8-0.6,1.2-0.8c0,0,0.1,0,0.1,0c0,0,0,0.1,0,0.1l0,0c-0.4,0.3-0.7,0.7-1.1,1l-1.1,1c-0.2,0.2-0.4,0.3-0.5,0.5
		c-0.2,0.2-0.4,0.3-0.5,0.5c-0.2,0.2-0.3,0.3-0.5,0.5l-0.3,0.3c-0.1,0.1-0.2,0.2-0.3,0.3c-1.4,1.4-2.7,2.9-3.9,4.4
		c-2.4,3.1-4.5,6.5-6.4,9.9c-1.9,3.5-3.5,7.1-4.9,10.8c-0.7,1.8-1.4,3.7-2,5.6c-0.3,0.9-0.6,1.9-0.9,2.8l-0.4,1.4l-0.2,0.7
		c0,0.1-0.1,0.2-0.1,0.4c0,0.1,0,0.1-0.1,0.2c0,0,0,0.1,0,0.1l0,0l0,0l0,0c0,0,0,0,0,0c0,0,0,0-0.1,0.1c0,0-0.1,0.1-0.2,0.1
		C238.8,387.6,238.7,387.5,238.7,387.3z"/>
	<path class="st10" d="M244.1,334.5c0.1-2.8-2.9-6-5.8-5.8c-1.7,0.1-2.6,1.3-3.7,2.4c-0.4,0.4-1.2,0.4-1.6,0
		c-0.8-0.8-1.4-1.8-2.5-2.3c-3-1.2-7.2,1.8-7.3,5c-0.1,3,2.6,5.5,4.4,7.7c1.2,1.4,2.3,2.8,3.6,4.2c0.4,0.4,1.9,1.8,2.2,1.8
		c0.5,0,2.3-1.7,2.9-2.3c1.1-1.1,2.2-2.2,3.2-3.3C241.2,340,244.1,337.3,244.1,334.5z"/>
</g>
</svg>
