<?xml version="1.0" encoding="utf-8"?>
<svg version="1.0" width="130.000000pt" height="80.000000pt" viewBox="0 0 130.000000 80.000000" preserveAspectRatio="xMidYMid meet" xmlns="http://www.w3.org/2000/svg">
  <g transform="translate(0.000000,80.000000) scale(0.100000,-0.100000)" fill="#000000" stroke="none">
    <path d="M595 746 c-27 -13 -63 -37 -79 -55 -28 -29 -32 -30 -83 -25 -117 14 -216 -49 -248 -159 -9 -33 -15 -70 -12 -84 3 -18 -1 -26 -17 -33 -54 -20 -106 -97 -106 -156 0 -83 61 -163 140 -184 28 -7 182 -10 479 -8 l437 3 42 28 c53 34 82 90 82 157 0 60 -17 97 -62 135 -28 24 -33 35 -34 74 -1 77 -46 121 -121 121 -37 0 -41 2 -51 38 -6 21 -28 57 -47 79 -76 89 -214 119 -320 69z m-95 -247 c0 -5 -8 -9 -19 -9 -10 0 -30 -9 -43 -20 -29 -22 -42 -16 -27 12 17 31 89 45 89 17z m370 -11 c25 -27 17 -38 -10 -13 -12 11 -29 16 -45 13 -14 -3 -25 -2 -25 2 0 27 53 26 80 -2z m-397 -70 c32 -26 24 -39 -25 -42 -53 -2 -63 12 -26 38 27 19 30 19 51 4z m395 -4 c37 -26 27 -40 -25 -38 -50 3 -58 16 -26 42 21 15 24 15 51 -4z m-223 -128 c44 0 106 4 138 9 46 6 57 5 57 -6 0 -27 -37 -74 -73 -94 -31 -17 -41 -18 -70 -7 -43 16 -66 15 -99 -2 -24 -13 -31 -12 -68 7 -41 19 -80 67 -80 96 0 11 11 12 58 6 31 -5 93 -9 137 -9z" style="fill: rgb(246, 249, 248);"/>
  </g>
</svg>