<?xml version="1.0" encoding="utf-8"?>
<svg version="1.1" x="0px" y="0px" preserveAspectRatio="xMidYMid meet" viewBox="0 0 800 300" width="800px" height="300px" enable-background="new 0 0 800 300" xmlns="http://www.w3.org/2000/svg">
  <defs>
    <linearGradient id="gradient-oval10" x1="429.5" y1="10" x2="429.5" y2="30" gradientUnits="userSpaceOnUse">
      <stop offset="0" stop-color="rgb(224, 235, 232)" stop-opacity="1"/>
      <stop offset="1" stop-color="rgb(255, 255, 255)" stop-opacity="1"/>
    </linearGradient>
    <linearGradient id="gradient-oval9" x1="228" y1="86" x2="228" y2="112" gradientUnits="userSpaceOnUse" gradientTransform="matrix(1, 0, 0, 1, 363, 0)">
      <stop offset="0" stop-color="rgb(224, 235, 232)" stop-opacity="1"/>
      <stop offset="1" stop-color="rgb(255, 255, 255)" stop-opacity="1"/>
    </linearGradient>
  </defs>
  <g id="brownHouse" transform="matrix(-1, 0, 0, 1, 801, 0)">
    <rect id="rectangle15" stroke="none" fill="rgb(202, 138, 101)" x="411" y="37" width="23" height="23"/>
    <rect id="rectangle16" stroke="none" fill="rgb(198, 247, 251)" x="414" y="41" width="6" height="6"/>
    <rect id="rectangle17" stroke="none" fill="rgb(198, 247, 251)" x="426" y="41" width="6" height="6"/>
    <rect id="rectangle18" stroke="none" fill="rgb(198, 247, 251)" x="414" y="51" width="6" height="6"/>
    <rect id="rectangle19" stroke="none" fill="rgb(112, 89, 94)" x="426" y="51" width="6" height="9"/>
    <path id="polygon2" stroke="none" fill="rgb(112, 89, 94)" d="M 422.5,25.38 L 437.94,37.79 407.06,37.79 422.5,25.38 Z M 422.5,25.38"/>
    <path id="oval10" stroke="none" fill="url(#gradient-oval10)" d="M 427.01,19.3 C 427.1,13.79 428.3,9.64 429.67,10.02 431.05,10.41 432.09,15.19 431.99,20.7 431.9,26.21 430.7,30.36 429.33,29.98 428.02,29.61 427,25.25 427,20"/>
    <rect id="rectangle20" stroke="none" fill="rgb(112, 89, 94)" x="426" y="26" width="6.5" height="9"/>
  </g>
  <path id="backHill" stroke="none" fill="rgb(62, 156, 135)" d="M 211 52 C 211 150.86 295.62 231 400 231 C 504.38 231 589 150.86 589 52 L 400 52 L 211 52 Z M 211 52" transform="matrix(-1, 0, 0, -1, 800, 283)"/>
  <path id="whiteHill" stroke="none" fill="rgb(255, 255, 255)" d="M 3 159 C 3 282.71 107.09 383 235.5 383 C 363.91 383 468 282.71 468 159 L 235.5 159 L 3 159 Z M 3 159" transform="matrix(-1, 0, 0, -1, 471, 542)"/>
  <path id="leftHill" stroke="none" fill="rgb(74, 177, 154)" d="M 289 133 C 289 262.79 402.94 368 543.5 368 C 684.06 368 798 262.79 798 133 L 543.5 133 L 289 133 Z M 289 133" transform="matrix(-1, 0, 0, -1, 1087, 501)"/>
  <g id="yellowTree" transform="matrix(-1, 0, 0, 1, 801, 0)">
    <ellipse id="oval" stroke="none" fill="rgb(67, 159, 138)" cx="104" cy="215.5" rx="12" ry="5.5"/>
    <path id="bezier" stroke="none" fill="rgb(246, 213, 70)" d="M 89.5,201.5 L 102.88,145.5 118.5,201.5 89.5,201.5 Z M 89.5,201.5"/>
    <rect id="rectangle" stroke="none" fill="rgb(175, 148, 108)" x="103" y="178" width="2" height="37"/>
    <path id="bezier2" stroke="none" fill="rgb(175, 148, 108)" d="M 103.5,187.34 L 109.23,181.5 110.5,182.8 104.14,189.28 103.71,189.5 103.5,187.34 Z M 103.5,187.34"/>
    <path id="bezier3" stroke="none" fill="rgb(175, 148, 108)" d="M 103.5,195.34 L 109.23,189.5 110.5,190.8 104.14,197.28 103.71,197.5 103.5,195.34 Z M 103.5,195.34"/>
    <path id="bezier4" stroke="none" fill="rgb(175, 148, 108)" d="M 104.5,191.34 L 98.77,185.5 97.5,186.8 103.86,193.28 104.29,193.5 104.5,191.34 Z M 104.5,191.34"/>
  </g>
  <ellipse id="oval3" stroke="none" fill="rgb(67, 159, 138)" cx="-622.75" cy="187" rx="10.25" ry="4" transform="matrix(-1, 0, 0, 1, 0, 0)"/>
  <path id="bezier9" stroke="none" d="M 608.5 124.45 L 621.88 175.3 L 637.5 124.45 L 608.5 124.45 Z M 608.5 124.45" transform="matrix(-1, 0, 0, -1, 1246, 299.75)" style="fill: rgb(177, 215, 180);"/>
  <rect id="rectangle3" stroke="none" fill="rgb(175, 148, 108)" x="-624" y="157" width="2" height="30" transform="matrix(-1, 0, 0, 1, 0, 0)"/>
  <path id="bezier10" stroke="none" fill="rgb(175, 148, 108)" d="M 616.5 159.1 L 622.23 164.4 L 623.5 163.22 L 617.14 157.33 L 616.71 157.14 L 616.5 159.1 Z M 616.5 159.1" transform="matrix(-1, 0, 0, -1, 1240, 321.539993)"/>
  <path id="bezier11" stroke="none" fill="rgb(175, 148, 108)" d="M 616.5 166.36 L 622.23 171.66 L 623.5 170.48 L 617.14 164.59 L 616.71 164.4 L 616.5 166.36 Z M 616.5 166.36" transform="matrix(-1, 0, 0, -1, 1240, 336.059998)"/>
  <path id="bezier12" stroke="none" fill="rgb(175, 148, 108)" d="M 629.5 162.73 L 623.77 168.03 L 622.5 166.85 L 628.86 160.96 L 629.29 160.77 L 629.5 162.73 Z M 629.5 162.73" transform="matrix(-1, 0, 0, -1, 1252, 328.800003)"/>
  <ellipse id="oval4" stroke="none" fill="rgb(224, 235, 232)" cx="-198.25" cy="195" rx="10.75" ry="4" transform="matrix(-1, 0, 0, 1, 0, 0)"/>
  <path id="bezier13" stroke="none" d="M 183.5 132.45 L 196.88 183.3 L 212.5 132.45 L 183.5 132.45 Z M 183.5 132.45" transform="matrix(-1, 0, 0, -1, 396, 315.75)" style="fill: rgb(177, 215, 180);"/>
  <rect id="rectangle4" stroke="none" fill="rgb(175, 148, 108)" x="-199" y="165" width="2" height="30" transform="matrix(-1, 0, 0, 1, 0, 0)"/>
  <path id="bezier14" stroke="none" fill="rgb(175, 148, 108)" d="M 191.5 167.1 L 197.23 172.4 L 198.5 171.22 L 192.14 165.33 L 191.71 165.14 L 191.5 167.1 Z M 191.5 167.1" transform="matrix(-1, 0, 0, -1, 390, 337.539993)"/>
  <path id="bezier15" stroke="none" fill="rgb(175, 148, 108)" d="M 191.5 174.36 L 197.23 179.66 L 198.5 178.48 L 192.14 172.59 L 191.71 172.4 L 191.5 174.36 Z M 191.5 174.36" transform="matrix(-1, 0, 0, -1, 390, 352.059998)"/>
  <path id="bezier16" stroke="none" fill="rgb(175, 148, 108)" d="M 204.5 170.73 L 198.77 176.03 L 197.5 174.85 L 203.86 168.96 L 204.29 168.77 L 204.5 170.73 Z M 204.5 170.73" transform="matrix(-1, 0, 0, -1, 402, 344.800003)"/>
  <g id="yellowTree4" transform="matrix(-1, 0, 0, 1, 801, 0)">
    <ellipse id="oval5" stroke="none" fill="rgb(224, 235, 232)" cx="679" cy="211" rx="10" ry="4"/>
    <path id="bezier17" stroke="none" fill="rgb(246, 213, 70)" d="M 664.5,197.5 L 677.88,141.5 693.5,197.5 664.5,197.5 Z M 664.5,197.5"/>
    <rect id="rectangle5" stroke="none" fill="rgb(175, 148, 108)" x="678" y="174" width="2" height="37"/>
    <path id="bezier18" stroke="none" fill="rgb(175, 148, 108)" d="M 678.5,183.34 L 684.23,177.5 685.5,178.8 679.14,185.28 678.71,185.5 678.5,183.34 Z M 678.5,183.34"/>
    <path id="bezier19" stroke="none" fill="rgb(175, 148, 108)" d="M 678.5,191.34 L 684.23,185.5 685.5,186.8 679.14,193.28 678.71,193.5 678.5,191.34 Z M 678.5,191.34"/>
    <path id="bezier20" stroke="none" fill="rgb(175, 148, 108)" d="M 679.5,187.34 L 673.77,181.5 672.5,182.8 678.86,189.28 679.29,189.5 679.5,187.34 Z M 679.5,187.34"/>
  </g>
  <g id="darkGreenTree2" transform="matrix(1, 0, 0, 1, -489.5, 0)">
    <ellipse id="oval6" stroke="none" fill="rgb(224, 235, 232)" cx="645" cy="249" rx="12" ry="4"/>
    <path id="bezier21" stroke="none" fill="rgb(33, 125, 104)" d="M 627.5,238.51 L 643.88,176.49 663,238.51 627.5,238.51 Z M 627.5,238.51"/>
    <rect id="rectangle6" stroke="none" fill="rgb(175, 148, 108)" x="644" y="216" width="2" height="33"/>
    <path id="bezier22" stroke="none" fill="rgb(175, 148, 108)" d="M 644.5,222.75 L 650.23,216.99 651.5,218.27 645.14,224.68 644.71,224.89 644.5,222.75 Z M 644.5,222.75"/>
    <path id="bezier23" stroke="none" fill="rgb(175, 148, 108)" d="M 644.5,230.65 L 650.23,224.89 651.5,226.17 645.14,232.58 644.71,232.79 644.5,230.65 Z M 644.5,230.65"/>
    <path id="bezier24" stroke="none" fill="rgb(175, 148, 108)" d="M 645.5,226.7 L 639.77,220.94 638.5,222.22 644.86,228.63 645.29,228.84 645.5,226.7 Z M 645.5,226.7"/>
  </g>
  <g id="yellowTree5" transform="matrix(1, 0, 0, 1, 514, 0)">
    <ellipse id="oval2" stroke="none" fill="rgb(67, 159, 138)" cx="143" cy="199.5" rx="12" ry="5.5"/>
    <path id="bezier5" stroke="none" fill="rgb(33, 125, 104)" d="M 127.5,185.5 L 142.27,116.5 159.5,185.5 127.5,185.5 Z M 127.5,185.5"/>
    <rect id="rectangle2" stroke="none" fill="rgb(175, 148, 108)" x="142" y="162" width="2" height="37"/>
    <path id="bezier6" stroke="none" fill="rgb(175, 148, 108)" d="M 142.5,171.34 L 148.23,165.5 149.5,166.8 143.14,173.28 142.71,173.5 142.5,171.34 Z M 142.5,171.34"/>
    <path id="bezier7" stroke="none" fill="rgb(175, 148, 108)" d="M 142.5,179.34 L 148.23,173.5 149.5,174.8 143.14,181.28 142.71,181.5 142.5,179.34 Z M 142.5,179.34"/>
    <path id="bezier8" stroke="none" fill="rgb(175, 148, 108)" d="M 143.5,175.34 L 137.77,169.5 136.5,170.8 142.86,177.28 143.29,177.5 143.5,175.34 Z M 143.5,175.34"/>
  </g>
  <ellipse id="oval7" stroke="none" fill="rgb(55, 140, 121)" cx="451" cy="90.5" rx="12" ry="5.5"/>
  <path id="bezier25" stroke="none" d="M 435.5 76.5 L 450.27 7.5 L 467.5 76.5 L 435.5 76.5 Z M 435.5 76.5" style="fill: rgb(177, 215, 180);"/>
  <rect id="rectangle7" stroke="none" fill="rgb(175, 148, 108)" x="450" y="53" width="2" height="37"/>
  <path id="bezier26" stroke="none" fill="rgb(175, 148, 108)" d="M 450.5 62.34 L 456.23 56.5 L 457.5 57.8 L 451.14 64.28 L 450.71 64.5 L 450.5 62.34 Z M 450.5 62.34"/>
  <path id="bezier27" stroke="none" fill="rgb(175, 148, 108)" d="M 450.5 70.34 L 456.23 64.5 L 457.5 65.8 L 451.14 72.28 L 450.71 72.5 L 450.5 70.34 Z M 450.5 70.34"/>
  <path id="bezier28" stroke="none" fill="rgb(175, 148, 108)" d="M 451.5 66.34 L 445.77 60.5 L 444.5 61.8 L 450.86 68.28 L 451.29 68.5 L 451.5 66.34 Z M 451.5 66.34"/>
  <g id="yellowTree7" transform="matrix(-1, 0, 0, 1, 801, 0)">
    <ellipse id="oval8" stroke="none" fill="rgb(55, 140, 121)" cx="492.25" cy="104" rx="10.25" ry="4"/>
    <path id="bezier29" stroke="none" fill="rgb(33, 125, 104)" d="M 477.5,92.3 L 490.88,41.45 506.5,92.3 477.5,92.3 Z M 477.5,92.3"/>
    <rect id="rectangle8" stroke="none" fill="rgb(175, 148, 108)" x="491" y="74" width="2" height="30"/>
    <path id="bezier30" stroke="none" fill="rgb(175, 148, 108)" d="M 491.5,79.44 L 497.23,74.14 498.5,75.32 492.14,81.21 491.71,81.4 491.5,79.44 Z M 491.5,79.44"/>
    <path id="bezier31" stroke="none" fill="rgb(175, 148, 108)" d="M 491.5,86.7 L 497.23,81.4 498.5,82.58 492.14,88.47 491.71,88.66 491.5,86.7 Z M 491.5,86.7"/>
    <path id="bezier32" stroke="none" fill="rgb(175, 148, 108)" d="M 492.5,83.07 L 486.77,77.77 485.5,78.95 491.86,84.84 492.29,85.03 492.5,83.07 Z M 492.5,83.07"/>
  </g>
  <rect id="rectangle9" stroke="none" x="567" y="121" width="30" height="30" style="fill: rgb(255, 192, 144);"/>
  <rect id="rectangle10" stroke="none" x="571" y="126" width="8" height="8" fill="rgb(198, 247, 251)"/>
  <rect id="rectangle11" stroke="none" x="586" y="126" width="8" height="8" fill="rgb(198, 247, 251)"/>
  <rect id="rectangle12" stroke="none" x="571" y="139" width="8" height="8" fill="rgb(198, 247, 251)"/>
  <rect id="rectangle13" stroke="none" x="586" y="139" width="8" height="12" fill="rgb(112, 89, 94)"/>
  <path id="polygon" stroke="none" d="M 582 106 L 601.92 122.12 L 562.08 122.12 L 582 106 Z M 582 106" fill="rgb(112, 89, 94)"/>
  <path id="oval9" stroke="none" d="M 588.01 98.09 C 588.12 90.93 589.56 85.53 591.21 86.03 C 592.86 86.53 594.11 92.74 593.99 99.91 C 593.88 107.07 592.44 112.47 590.79 111.97 C 589.22 111.49 588 105.83 588 99" fill="url(#gradient-oval9)"/>
  <rect id="rectangle14" stroke="none" x="587" y="107" width="7.5" height="12" fill="rgb(112, 89, 94)"/>
  <ellipse id="ellipse-1" stroke="none" fill="rgb(67, 159, 138)" cx="-488.908" cy="163.534" rx="32.599" ry="10.041" transform="matrix(-0.999976, 0.006911, 0, 1.000024, 1.009892, -0.043845)" style=""/>
  <g transform="matrix(-0.013696, 0, 0, -0.013696, 514.038818, 166.297684)" fill="#000000" stroke="none" style="">
    <path
      d="M509 3358 c-20 -17 -103 -248 -128 -358 -27 -115 -41 -256 -41 -397 1 -202 25 -334 92 -506 l38 -99 -16 -61 c-9 -34 -18 -105 -19 -157 -2 -80 -12 -131 -64 -329 -35 -129 -71 -246 -82 -260 -11 -15 -31 -87 -50 -175 -17 -82 -43 -185 -59 -230 -35 -99 -57 -212 -65 -331 -6 -88 -6 -91 20 -115 22 -20 38 -25 88 -27 34 -2 83 -5 108 -9 30 -4 55 -2 70 7 13 7 43 11 65 10 38 -2 43 1 58 34 27 56 5 128 -62 197 l-35 37 7 93 c6 77 11 99 32 128 14 19 67 98 118 175 116 174 163 228 212 243 21 6 40 10 42 8 2 -2 -7 -24 -20 -48 -20 -37 -23 -57 -23 -148 l1 -105 81 -235 c45 -129 87 -250 93 -268 7 -19 20 -34 33 -36 12 -3 98 -7 190 -11 l168 -5 15 35 c12 30 12 40 1 68 -21 49 -46 65 -127 82 -41 9 -78 21 -82 28 -38 55 -43 75 -46 203 -4 126 -3 133 23 185 32 63 122 199 164 248 l29 33 74 -16 c108 -25 160 -43 293 -103 200 -92 391 -130 541 -109 l52 8 97 -119 c54 -65 128 -149 165 -188 36 -38 102 -115 147 -170 44 -55 101 -120 128 -144 51 -47 181 -113 260 -132 68 -16 244 -17 272 -1 46 25 49 136 5 174 -9 8 -64 27 -122 43 -139 36 -220 78 -255 131 -13 20 -10 20 38 -7 111 -61 246 -87 382 -73 65 7 68 8 82 42 17 40 10 101 -15 132 -12 14 -57 32 -137 54 -135 37 -170 52 -225 102 -43 39 -152 183 -193 254 -44 77 -61 161 -61 305 l-1 130 42 55 c70 92 82 131 87 271 3 68 9 138 14 154 8 28 11 30 68 33 35 2 81 -3 114 -13 53 -16 57 -16 113 5 69 26 85 51 71 107 -7 30 -19 43 -66 70 -32 19 -58 37 -58 41 0 4 33 19 73 34 127 48 167 98 167 208 0 73 -49 120 -125 120 -63 0 -98 23 -165 109 -104 134 -189 175 -365 174 -148 0 -261 -48 -353 -147 -22 -24 -54 -48 -72 -54 -17 -6 -70 -44 -117 -84 -139 -117 -133 -110 -123 -153 5 -21 13 -42 19 -48 34 -34 -9 -91 -78 -103 -20 -4 -66 -22 -102 -40 -102 -51 -186 -65 -422 -71 -248 -7 -386 6 -530 49 -88 26 -123 31 -254 35 l-153 5 -39 43 c-44 47 -64 103 -81 220 -14 100 -12 250 5 325 30 134 31 394 2 434 -10 14 -15 14 -28 4z"
      style="fill: rgb(112, 89, 94);"/>
  </g>
  <ellipse id="ellipse-2" stroke="none" fill="rgb(224, 235, 232)" cx="-258.225" cy="182.518" rx="27.145" ry="7.079" transform="matrix(-1, 0, 0, 1, 0, 0)" style=""/>
  <g transform="matrix(0.018436, 0, 0, -0.018436, 232.389771, 188.719254)" fill="#000000" stroke="none" style="">
    <path
      d="M2260 2624 c-30 -13 -79 -29 -107 -35 -46 -11 -58 -10 -92 5 -33 15 -47 16 -91 7 -65 -14 -144 -51 -192 -91 -36 -30 -68 -101 -68 -151 0 -10 -22 -48 -50 -84 -27 -36 -50 -70 -50 -76 0 -18 41 -50 72 -56 l31 -6 -6 -146 c-3 -84 -12 -166 -20 -193 -31 -99 -104 -181 -409 -455 -148 -134 -293 -292 -365 -399 -75 -110 -108 -190 -123 -292 -11 -81 -41 -121 -117 -159 -52 -25 -68 -28 -158 -27 -99 0 -176 15 -317 62 -57 19 -57 19 -46 -1 18 -33 90 -107 136 -139 68 -47 144 -69 231 -69 122 1 232 43 279 108 l20 28 24 -23 c14 -12 29 -22 35 -22 5 0 9 -19 9 -43 l-1 -42 342 -3 342 -2 -11 31 c-6 17 -27 41 -49 56 -36 24 -44 25 -169 24 -71 -1 -130 2 -130 7 0 4 13 18 28 29 16 12 68 58 116 104 80 75 93 84 174 111 123 41 288 130 379 203 43 35 79 62 81 60 2 -1 47 -142 101 -311 l98 -309 103 -3 c105 -3 130 4 130 37 0 21 -23 40 -82 68 -35 16 -48 29 -52 50 -17 83 -48 415 -48 523 -1 118 1 132 36 240 47 143 55 231 32 355 -24 128 -60 266 -108 413 -71 221 -58 279 82 378 60 42 82 63 94 94 20 51 20 102 1 140 -19 36 -39 37 -115 4z"
      style="fill: rgb(112, 89, 94);"/>
  </g>
</svg>
