<?xml version="1.0" encoding="utf-8"?>
<svg version="1.0" width="130.000000pt" height="80.000000pt" viewBox="0 0 130.000000 80.000000" preserveAspectRatio="xMidYMid meet" xmlns="http://www.w3.org/2000/svg">
  <g transform="translate(0.000000,80.000000) scale(0.100000,-0.100000)" fill="#000000" stroke="none">
    <path d="M630 751 c-45 -15 -84 -39 -114 -70 -28 -29 -31 -30 -92 -24 -55 5 -70 2 -119 -22 -36 -17 -67 -42 -85 -67 -30 -41 -55 -133 -45 -160 5 -11 -5 -22 -32 -38 -138 -77 -110 -287 44 -329 53 -15 855 -15 908 0 85 24 135 89 135 175 0 58 -23 107 -67 143 -27 22 -33 34 -28 50 10 32 -12 87 -46 116 -22 18 -42 25 -73 25 -41 0 -43 2 -56 39 -17 53 -62 105 -117 138 -35 20 -61 27 -117 29 -39 2 -82 0 -96 -5z m-115 -182 c-4 -5 -12 -9 -19 -9 -22 0 -66 -40 -66 -61 0 -10 -7 -19 -15 -19 -45 0 13 84 70 101 24 7 38 1 30 -12z m321 -94 c20 -8 33 -19 29 -24 -3 -7 -20 -4 -42 7 -28 13 -37 14 -40 5 -6 -16 -33 -17 -33 -3 0 8 27 25 48 29 1 1 19 -6 38 -14z m-308 -47 c20 -20 15 -76 -9 -88 -40 -22 -74 33 -49 81 12 21 40 25 58 7z m310 -34 c29 -20 19 -37 -13 -22 -19 8 -31 8 -50 0 -31 -14 -47 5 -20 25 25 17 55 17 83 -3z m-38 -175 c0 -8 -42 -45 -65 -56 -40 -20 -91 -23 -139 -9 -43 13 -96 49 -96 65 0 4 68 6 150 6 83 0 150 -2 150 -6z" style="fill: rgb(246, 249, 248);"/>
  </g>
</svg>